<svg id="_0186_marketing_2" xmlns="http://www.w3.org/2000/svg" xmlns:xlink="http://www.w3.org/1999/xlink" viewBox="0 0 500 500" data-imageid="marketing-2-67" imageName="Marketing 2" class="illustrations_image" style="width: 178px;"><defs><style>.cls-1_marketing-2-67{fill:url(#linear-gradient);}.cls-1_marketing-2-67,.cls-2_marketing-2-67,.cls-3_marketing-2-67,.cls-4_marketing-2-67,.cls-5_marketing-2-67,.cls-6_marketing-2-67,.cls-7_marketing-2-67,.cls-8_marketing-2-67,.cls-9_marketing-2-67,.cls-10_marketing-2-67,.cls-11_marketing-2-67,.cls-12_marketing-2-67,.cls-13_marketing-2-67,.cls-14_marketing-2-67,.cls-15_marketing-2-67,.cls-16_marketing-2-67,.cls-17_marketing-2-67,.cls-18_marketing-2-67{stroke-width:0px;}.cls-2_marketing-2-67{fill:url(#linear-gradient-10-marketing-2-67);}.cls-3_marketing-2-67{opacity:.3;}.cls-3_marketing-2-67,.cls-4_marketing-2-67,.cls-13_marketing-2-67,.cls-17_marketing-2-67,.cls-18_marketing-2-67{fill:#68e1fd;}.cls-3_marketing-2-67,.cls-4_marketing-2-67,.cls-13_marketing-2-67,.cls-18_marketing-2-67{isolation:isolate;}.cls-4_marketing-2-67{opacity:.16;}.cls-5_marketing-2-67{fill:url(#linear-gradient-4-marketing-2-67);}.cls-6_marketing-2-67{fill:url(#linear-gradient-2-marketing-2-67);}.cls-7_marketing-2-67{fill:url(#linear-gradient-3-marketing-2-67);}.cls-8_marketing-2-67{fill:url(#linear-gradient-8-marketing-2-67);}.cls-9_marketing-2-67{fill:url(#linear-gradient-9-marketing-2-67);}.cls-10_marketing-2-67{fill:url(#linear-gradient-7-marketing-2-67);}.cls-11_marketing-2-67{fill:url(#linear-gradient-5-marketing-2-67);}.cls-12_marketing-2-67{fill:url(#linear-gradient-6-marketing-2-67);}.cls-13_marketing-2-67{opacity:.24;}.cls-14_marketing-2-67{fill:#231f20;}.cls-15_marketing-2-67{fill:#fff;}.cls-16_marketing-2-67{fill:#ffaa71;}.cls-18_marketing-2-67{opacity:.25;}</style><linearGradient id="linear-gradient-marketing-2-67" x1="740.08" y1="2065.21" x2="713.46" y2="2007.52" gradientTransform="translate(-477.98 2261.41) scale(1 -1)" gradientUnits="userSpaceOnUse"><stop offset="0" stop-color="#231f20" stop-opacity="0"/><stop offset="1" stop-color="#231f20"/></linearGradient><linearGradient id="linear-gradient-2-marketing-2-67" x1="714.29" y1="2036.71" x2="638.92" y2="2196.19" gradientTransform="translate(-477.98 2261.41) scale(1 -1)" gradientUnits="userSpaceOnUse"><stop offset="0" stop-color="#231f20" stop-opacity="0"/><stop offset="1" stop-color="#231f20"/></linearGradient><linearGradient id="linear-gradient-3-marketing-2-67" x1="741.89" y1="2081.23" x2="748.81" y2="2050.47" xlink:href="#linear-gradient-marketing-2-67"/><linearGradient id="linear-gradient-4-marketing-2-67" x1="745.26" y1="2077.99" x2="771.79" y2="2107.86" xlink:href="#linear-gradient-marketing-2-67"/><linearGradient id="linear-gradient-5-marketing-2-67" x1="689.9" y1="1890.34" x2="656.71" y2="1844.04" xlink:href="#linear-gradient-marketing-2-67"/><linearGradient id="linear-gradient-6-marketing-2-67" x1="724.69" y1="1898.8" x2="709.25" y2="1819.58" xlink:href="#linear-gradient-marketing-2-67"/><linearGradient id="linear-gradient-7-marketing-2-67" x1="718.41" y1="1992.42" x2="335.27" y2="1966.95" xlink:href="#linear-gradient-marketing-2-67"/><linearGradient id="linear-gradient-8-marketing-2-67" x1="760.59" y1="2129.41" x2="780.01" y2="2129.41" gradientTransform="translate(-471 2272.74) scale(1 -1)" gradientUnits="userSpaceOnUse"><stop offset="0" stop-color="#fff" stop-opacity="0"/><stop offset=".95" stop-color="#fff"/></linearGradient><linearGradient id="linear-gradient-9-marketing-2-67" x1="-26.86" y1="2086.09" x2="-5.85" y2="2086.09" gradientTransform="translate(-638.67 2013.04) rotate(27.42) scale(1 -1)" xlink:href="#linear-gradient-8-marketing-2-67"/><linearGradient id="linear-gradient-10-marketing-2-67" x1="-818.77" y1="1588.77" x2="-797.77" y2="1588.77" gradientTransform="translate(-654.33 1665.87) rotate(59.75) scale(1 -1)" xlink:href="#linear-gradient-8-marketing-2-67"/></defs><path id="background_marketing-2-67" class="cls-13_marketing-2-67 targetColor" d="M178.62,439.92c38.16,7.06,77.47,4.99,116.08.76,50.44-5.5,104.29-16.66,138.66-53.38,19.37-20.73,30.52-47.7,37.94-74.91,8.19-30.15,12.04-63.28-.92-91.75-16.62-36.53-56.21-56.6-84.15-85.71-11.44-11.91-21.02-25.49-32.88-36.99-30.75-29.76-76.74-43.43-119.1-35.44-49.64,9.37-89.23,44.97-125.77,79.32-22.5,21.14-45.03,42.51-63.22,67.36-11.58,15.82-21.38,33.23-26.14,52.16-22.51,88.83,81.63,164.18,159.5,178.57Z" style="fill: rgb(104, 225, 253);"/><g id="screen_2_marketing-2-67"><rect class="cls-13_marketing-2-67 targetColor" x="214.87" y="120.12" width="167.45" height="235.36" rx="18.04" ry="18.04" style="fill: rgb(104, 225, 253);"/><rect class="cls-15_marketing-2-67" x="223.36" y="113.18" width="167.45" height="235.36" rx="18.04" ry="18.04"/><rect class="cls-3_marketing-2-67 targetColor" x="298.72" y="128.61" width="74.6" height="112.15" rx="9.36" ry="9.36" style="fill: rgb(104, 225, 253);"/><rect class="cls-4_marketing-2-67 targetColor" x="240.8" y="146.62" width="53.81" height="112.15" rx="7.95" ry="7.95" style="fill: rgb(104, 225, 253);"/><rect class="cls-4_marketing-2-67 targetColor" x="306.13" y="261.34" width="53.81" height="45.97" rx="5.09" ry="5.09" style="fill: rgb(104, 225, 253);"/></g><g id="screen_1_marketing-2-67"><rect class="cls-13_marketing-2-67 targetColor" x="93.97" y="198.88" width="100.62" height="141.43" rx="10.84" ry="10.84" style="fill: rgb(104, 225, 253);"/><rect class="cls-15_marketing-2-67" x="100.66" y="190.14" width="100.62" height="141.43" rx="10.84" ry="10.84"/><rect class="cls-18_marketing-2-67 targetColor" x="112.69" y="204.75" width="53.81" height="112.15" rx="7.95" ry="7.95" style="fill: rgb(104, 225, 253);"/></g><g id="character_marketing-2-67"><path class="cls-13_marketing-2-67 targetColor" d="M164.31,386.52c-2.59.06-6.19,1.74-5.01,4.02.37.56.88,1.02,1.49,1.32,8.25,4.9,17.75,7.17,27.17,8.94,27.47,5.09,55.52,6.39,83.34,3.85,1.91-.17,3.93-.41,5.45-1.58,8.31-6.42-18.93-8.99-22.17-9.8-6.77-1.69-13.02-4.17-20.01-4.96-23.12-2.62-47.04-2.42-70.27-1.8Z" style="fill: rgb(104, 225, 253);"/><polygon class="cls-15_marketing-2-67" points="306.5 178.58 343.93 184.94 318.86 221.4 285.48 212.15 306.5 178.58"/><path class="cls-16_marketing-2-67" d="M202,350.2c-3.44,11.11-7.69,22.14-8.51,33.74-.14,1.15-.07,2.31.2,3.44,1.11,3.82,5.76,5.12,9.68,5.8,1.88.33,4.33.39,5.13-1.34s-.87-3.63-2.54-4.62-3.68-2.03-3.95-3.94c-.18-1.22.44-2.39,1.01-3.48,2.59-4.95,4.47-10.21,6.36-15.47l9.57-26.71c1.76-4.57,3.21-9.26,4.34-14.03,1.56-7.28,1.64-14.79,1.62-22.24,0-4.02-.08-8.19-1.83-11.82-1.14-2.37-3.27-4.61-5.81-5.44-3.66-1.2-3.78-.12-4.13,3.04-.85,7.07-.98,14.22-1.93,21.32-1.9,14.15-4.98,28.11-9.21,41.74Z"/><path class="cls-16_marketing-2-67" d="M233.96,288.19c1.17,34.22.79,68.45-1.13,102.69-.14.93-.01,1.89.38,2.75.69,1.23,2.31,1.58,3.73,1.7,2.82.25,5.67.1,8.45-.45.9-.08,1.73-.5,2.32-1.18.76-1.12,0-2.72-1.09-3.49s-2.5-1.01-3.74-1.53c-.6-.2-1.13-.59-1.49-1.11-.49-.8-.29-1.83-.07-2.75,6.82-29.02,9.82-59.27,5.16-88.72-.56-3.55-2.16-7.94-5.76-8.07-2.9-.11-4.92,2.75-6.37,5.25"/><path class="cls-17_marketing-2-67 targetColor" d="M254.73,198.51c2.17,1.48,4.46,2.95,7.06,3.3.15-2.25-.97-4.36-1.59-6.53s-.53-4.91,1.34-6.19c2.15-1.44,5.11.07,6.75,2.06s2.69,4.59,3.67,7.08l3.1,7.88c.48,1.02.75,2.12.82,3.25-.08,1.37-.62,2.67-1.53,3.69-3.1,3.73-8.73,4.53-13.36,3.07s-8.4-4.72-11.88-8.12c-2.59-2.55-9.57-9.27-6.51-13.34,3.32-4.39,9.33,1.95,12.13,3.86Z" style="fill: rgb(104, 225, 253);"/><path class="cls-1_marketing-2-67" d="M254.73,198.51c2.17,1.48,4.46,2.95,7.06,3.3.15-2.25-.97-4.36-1.59-6.53s-.53-4.91,1.34-6.19c2.15-1.44,5.11.07,6.75,2.06s2.69,4.59,3.67,7.08l3.1,7.88c.48,1.02.75,2.12.82,3.25-.08,1.37-.62,2.67-1.53,3.69-3.1,3.73-8.73,4.53-13.36,3.07s-8.4-4.72-11.88-8.12c-2.59-2.55-9.57-9.27-6.51-13.34,3.32-4.39,9.33,1.95,12.13,3.86Z"/><path class="cls-16_marketing-2-67" d="M251.37,181.24c.48,2.15,1.94,3.94,3.95,4.85.51.2,1,.42,1.47.69.91.67,1.6,1.6,1.99,2.67.38,1.07.94,2.06,1.65,2.94.75.88,1.98,1.2,3.06.79.47-.26.85-.65,1.11-1.13.73-1.41.91-3.04.52-4.58-.4-1.52-.96-2.99-1.69-4.39-.76-1.62-1.53-3.31-2.82-4.55-2.65-2.58-10.34-2.5-9.23,2.72Z"/><path class="cls-14_marketing-2-67" d="M242.27,163.54c.19-1.4-.51-2.77-1.76-3.44-1.24-.63-2.61-.92-4-.86-1.86-.07-3.72.18-5.5.73-3.44,1.15-6.19,3.84-8.32,6.78s-3.82,6.19-5.98,9.12c-3.9,5.29-9.63,9.53-16.18,10.25-1.38.15-2.87.23-3.77,1.24-.5.64-.81,1.41-.89,2.22-.6,2.7-.56,5.51.13,8.19.72,2.7,2.57,4.96,5.09,6.19.5.22,1.09.45,1.28.96.1.42.07.87-.11,1.27-.4,1.44-.46,2.96-.19,4.43,1,5.51,6.28,9.16,11.79,8.16,1.72-.31,3.34-1.07,4.68-2.19,3.44,4,9.47,4.45,13.46,1.01,1.25-1.08,2.2-2.46,2.76-4.02.73-2.06.74-4.26,1.29-6.36,1.38-5.19,5.65-8.94,8.88-13.23,2.82-3.66,4.77-7.91,5.69-12.43.45-2.62.68-5.27.69-7.92.05-2.48,0-5.1-1.22-7.25-1.22-2.15-3.39-3.44-5.5-4.59-2.48-1.31-5.24-2.5-8.01-2.03"/><path class="cls-16_marketing-2-67" d="M233.17,184.62c-.13,2.03-.08,4.06.17,6.07.14,1.78.65,3.52,1.51,5.09.88,1.59,2.44,2.67,4.24,2.94,1.41.13,2.8-.38,3.8-1.38.98-.99-4.93-9.53-3.69-8.89,7.57,3.86,7.43-12.92,7.57-14.78.19-2.09-.24-4.18-1.24-6.02-1.05-1.85-3.01-2.99-5.14-2.98-1.84.19-3.49,1.2-4.5,2.75-.99,1.54-1.66,3.26-1.98,5.06-.78,3.53-1.07,7.15-.86,10.76"/><path class="cls-17_marketing-2-67 targetColor" d="M230.71,192.89c-1.34-1.38-3.62-1.46-5.34-.6-1.68.96-3,2.44-3.76,4.22-.7,1.43-1.19,2.95-1.46,4.51-.33,2.48-.39,4.99-.17,7.48.24,4.94.44,9.88.3,14.82-.06,2.26-.2,4.56.41,6.73,1.01,3.6,4.04,6.44,7.57,7.78,3.56,1.23,7.4,1.4,11.06.49.55-.09,1.08-.29,1.55-.58.39-.3.73-.66,1-1.07.8-1.11,1.49-2.29,2.06-3.52,1.34-2.9,2.02-6.06,2.68-9.19,1.46-6.83,2.92-13.76,2.91-20.72,0-2.17-.17-4.42-1.21-6.33-1.21-2.05-3.13-3.58-5.39-4.31-2.25-.72-4.6-1.06-6.95-1.02-3.13-.05-6.26.17-9.36.65" style="fill: rgb(104, 225, 253);"/><path class="cls-6_marketing-2-67" d="M247.66,219.19s-16.59-2.21-17.55-3.57-3.28,19.09-3.28,19.09c0,0-5.21.96-5.41-2.9s-.12-33.65,2.84-37.27c2.96-3.62.63,9.88,14.14,11.42,13.51,1.55,9.84,9.06,9.84,9.06l-.58,4.15Z"/><path class="cls-17_marketing-2-67 targetColor" d="M243.74,214.91c7.39,1.61,29.88.25,32.6-3.44.78-1.04,1.23-3.12,1.31-4.42s.14-2.75-.45-3.74c-.73-1.25-2.06-1.2-3.22-1.06-7.06.77-14.16,1.02-21.25.77-4.73-.12-9.63-.39-13.95-3.05-2.36-1.45-4.49-3.56-6.82-5.1-2.33-1.54-5.39-2.65-7.7-.36-1.86,1.83-1.84,4.62-.69,7.13,2.72,5.78,8.94,9.26,13.41,11.4,2.92,1.43,3.72,1.2,6.75,1.86Z" style="fill: rgb(104, 225, 253);"/><path class="cls-16_marketing-2-67" d="M273.22,209.55c5.84,2.06,12.46.06,18.36-1.83,1.14-.29,2.21-.84,3.1-1.6.83-.82,1.29-1.94,2.06-2.81,1.68-1.89,4.49-2.28,6.49-3.82.23-.15.42-.37.54-.62.11-.31.11-.65,0-.96-.53-1.41-1.78-2.42-3.27-2.63-1.47-.19-2.95-.06-4.36.4-3.5.93-6.82,2.4-9.86,4.37-2.65,1.72-5.14,3.84-8.18,4.68-1.82.5-4.03.69-5.01,2.29-.02,0-.89,2.2.12,2.55Z"/><path class="cls-17_marketing-2-67 targetColor" d="M253.32,293.63c-.14,1.81-.33,3.7-1.45,5.12s-2.96,2.06-4.68,2.63c-6.19,2.06-12.53,4.13-19.08,4.68-4.76.48-9.57-.17-14.04-1.89-1.67-.66-3.25-1.51-4.72-2.54-1.02-.65-1.87-1.54-2.49-2.58-.56-1.24-.85-2.59-.85-3.95-1.2-20.22,2.55-41.58,14.53-57.72.85-1.15,1.73-2.25,2.66-3.34,6.63,1.12,13.65.98,20.37,1.59,7.8,18.29,11.14,38.16,9.76,57.99Z" style="fill: rgb(104, 225, 253);"/><path class="cls-14_marketing-2-67" d="M241.8,166.46c0,6.95-5.64,12.58-12.6,12.58-.6,0-1.19-.04-1.79-.13-.44.01-.83-.31-.91-.74-1.31-3.76.47-7.94,2.96-11.05,1.25-1.67,2.86-3.04,4.72-3.99,1.5-.64,3.09-1.04,4.71-1.17.96-.1,2.67-.19,3.18.86.42.87-.28,2.66-.28,3.64Z"/><path class="cls-15_marketing-2-67" d="M284.13,182.93c-.14.8-.93,1.45-2.14,1.95-3.62,1.59-11.05,1.92-15.32,1.62-5.7-.39-14.2,2.11-17.19,1.92-.35-.02-.69-.06-1.04-.11-2.19-.33-2.88-1.29-2.06-3.15.96-2.14,17.08-12.94,18.72-15.92s8-6.66,8-6.66c0,0,11.61,17.08,11.03,20.37Z"/><path class="cls-7_marketing-2-67" d="M282.02,184.85h0c-3.62,1.59-11.05,1.92-15.32,1.62-5.7-.39-14.2,2.11-17.19,1.92-.35-.02-.69-.06-1.04-.11-.25-.52.41-1.09.98-1.38,5.12-2.29,10.6-3.66,16.2-4.06.94-.06,2.11-.36,2.19-1.26,0-.63-.47-1.42.06-1.78.08,0,2,1.53,2.25,1.64.58.32,1.23.49,1.89.47,1.86.14,3.07.98,4.85,1.48,1.59.44,3.37,0,4.88.69.14.05.27.14.35.27.04.17,0,.36-.1.5Z"/><path class="cls-17_marketing-2-67 targetColor" d="M281.88,184.27c-.87.3-1.79.46-2.71.47-4.2,0-8.41-3.29-10.19-8.25-1.31-3.36-1.1-7.12.57-10.32.94-1.83,2.54-3.24,4.47-3.94,4.96-1.75,10.74,1.73,12.94,7.81s-.08,12.46-5.08,14.24Z" style="fill: rgb(104, 225, 253);"/><path class="cls-5_marketing-2-67" d="M279.17,184.74c-4.2,0-8.41-3.29-10.19-8.25-1.31-3.36-1.1-7.12.57-10.32,4.13.19,8.25,3.48,10.03,8.39,1.26,3.31,1.12,6.99-.41,10.18Z"/><path class="cls-16_marketing-2-67" d="M255.23,176.55c-.54,0-1.07.08-1.59.23-1.62.51-2.75,1.97-3.55,3.49-.23.41-.39.86-.46,1.32-.18.84.36,1.67,1.2,1.85.1.02.19.03.29.03.44.02.88-.02,1.31-.14,1.33-.26,2.57-.85,3.61-1.72,1.04-.89,1.62-2.21,1.56-3.58-.02-.31-.11-.61-.26-.88-.43-.7-1.4-.64-2.11-.62Z"/><path class="cls-17_marketing-2-67 targetColor" d="M198.94,369.47c-.58-.13-1.19-.11-1.76.06-1.08.41-1.55,1.65-1.91,2.75l-5.5,17.57c-.3.65-.33,1.39-.09,2.06.28.43.67.77,1.13.98,5.01,2.77,10.6,4.31,16.32,4.49,1,0,2.15-.04,2.8-.8.4-.55.61-1.21.58-1.89.07-1.67-.29-3.33-1.05-4.81-.82-1.62-2.06-2.99-2.98-4.57-1.78-3.22-2-7.07-.62-10.48.78-1.96.78-2.43-1.22-3.48-1.79-.93-3.73-1.56-5.72-1.86Z" style="fill: rgb(104, 225, 253);"/><path class="cls-17_marketing-2-67 targetColor" d="M235.44,373.03c-.6-.02-1.19.12-1.71.4-.98.61-1.2,1.91-1.33,3.07l-2,18.32c-.17.7-.06,1.44.32,2.06.35.37.8.62,1.3.74,5.45,1.74,11.24,2.16,16.88,1.22,1-.17,2.1-.46,2.59-1.33.29-.61.36-1.31.21-1.97-.26-1.65-.94-3.21-1.97-4.53-1.13-1.43-2.63-2.52-3.82-3.9-2.37-2.81-3.34-6.55-2.65-10.16.38-2.06.3-2.54-1.87-3.18-1.93-.56-3.93-.81-5.94-.74Z" style="fill: rgb(104, 225, 253);"/><path class="cls-11_marketing-2-67" d="M198.94,369.47c-.58-.13-1.19-.11-1.76.06-1.08.41-1.55,1.65-1.91,2.75l-5.5,17.57c-.3.65-.33,1.39-.09,2.06.28.43.67.77,1.13.98,5.01,2.77,10.6,4.31,16.32,4.49,1,0,2.15-.04,2.8-.8.4-.55.61-1.21.58-1.89.07-1.67-.29-3.33-1.05-4.81-.82-1.62-2.06-2.99-2.98-4.57-1.78-3.22-2-7.07-.62-10.48.78-1.96.78-2.43-1.22-3.48-1.79-.93-3.73-1.56-5.72-1.86Z"/><path class="cls-12_marketing-2-67" d="M235.44,373.03c-.6-.02-1.19.12-1.71.4-.98.61-1.2,1.91-1.33,3.07l-2,18.32c-.17.7-.06,1.44.32,2.06.35.37.8.62,1.3.74,5.45,1.74,11.24,2.16,16.88,1.22,1-.17,2.1-.46,2.59-1.33.29-.61.36-1.31.21-1.97-.26-1.65-.94-3.21-1.97-4.53-1.13-1.43-2.63-2.52-3.82-3.9-2.37-2.81-3.34-6.55-2.65-10.16.38-2.06.3-2.54-1.87-3.18-1.93-.56-3.93-.81-5.94-.74Z"/><path class="cls-10_marketing-2-67" d="M222.33,247.23c-2.9,6.63-4.41,13.84-5.18,21.02-1.18,11.32-.55,22.7-1.04,34.07.02.49-.12.98-.41,1.38-.31.29-.72.46-1.15.46-.15.03-.31.05-.47.06-1.67-.66-3.25-1.51-4.72-2.54-1.02-.65-1.87-1.54-2.49-2.58-.56-1.24-.85-2.59-.85-3.95-1.2-20.22,2.55-41.58,14.53-57.72,2.47-.82,5.34-1.51,6.14.69.63,1.84-3.59,7.32-4.36,9.13Z"/><polygon class="cls-8_marketing-2-67" points="289.59 151.61 302.6 131.83 309.01 137.91 294.45 154.85 289.59 151.61"/><polygon class="cls-9_marketing-2-67" points="294.39 156.19 315.86 145.35 319.26 153.87 297.59 161.44 294.39 156.19"/><polygon class="cls-2_marketing-2-67" points="298.58 162.32 322.52 164.64 320.83 173.66 298.47 168.46 298.58 162.32"/></g></svg>