<svg id="_0346_receptionist_1" xmlns="http://www.w3.org/2000/svg" xmlns:xlink="http://www.w3.org/1999/xlink" viewBox="0 0 500 500" data-imageid="receptionist-1-70" imageName="Receptionist 1" class="illustrations_image" style="width: 178px;"><defs><style>.cls-1_receptionist-1-70{opacity:.58;}.cls-1_receptionist-1-70,.cls-2_receptionist-1-70,.cls-3_receptionist-1-70,.cls-4_receptionist-1-70,.cls-5_receptionist-1-70,.cls-6_receptionist-1-70,.cls-7_receptionist-1-70,.cls-8_receptionist-1-70,.cls-9_receptionist-1-70,.cls-10_receptionist-1-70,.cls-11_receptionist-1-70,.cls-12_receptionist-1-70,.cls-13_receptionist-1-70,.cls-14_receptionist-1-70{stroke-width:0px;}.cls-1_receptionist-1-70,.cls-3_receptionist-1-70{isolation:isolate;}.cls-1_receptionist-1-70,.cls-3_receptionist-1-70,.cls-14_receptionist-1-70{fill:#68e1fd;}.cls-2_receptionist-1-70{fill:url(#linear-gradient);}.cls-3_receptionist-1-70{opacity:.18;}.cls-4_receptionist-1-70{fill:url(#linear-gradient-4-receptionist-1-70);}.cls-5_receptionist-1-70{fill:url(#linear-gradient-2-receptionist-1-70);}.cls-6_receptionist-1-70{fill:url(#linear-gradient-3-receptionist-1-70);}.cls-7_receptionist-1-70{fill:url(#linear-gradient-8-receptionist-1-70);}.cls-8_receptionist-1-70{fill:url(#linear-gradient-9-receptionist-1-70);}.cls-9_receptionist-1-70{fill:url(#linear-gradient-7-receptionist-1-70);}.cls-10_receptionist-1-70{fill:url(#linear-gradient-5-receptionist-1-70);}.cls-11_receptionist-1-70{fill:url(#linear-gradient-6-receptionist-1-70);}.cls-12_receptionist-1-70{fill:#231f20;}.cls-13_receptionist-1-70{fill:#ffb4a3;}</style><linearGradient id="linear-gradient-receptionist-1-70" x1="213.9" y1="226.67" x2="344.22" y2="240.35" gradientUnits="userSpaceOnUse"><stop offset="0" stop-color="#231f20" stop-opacity="0"/><stop offset="1" stop-color="#231f20"/></linearGradient><linearGradient id="linear-gradient-2-receptionist-1-70" x1="-1034.71" y1="1782.73" x2="-1036.55" y2="1752.91" gradientTransform="translate(1289.88 1977.06) scale(1 -1)" xlink:href="#linear-gradient-receptionist-1-70"/><linearGradient id="linear-gradient-3-receptionist-1-70" x1="256.16" y1="243.79" x2="321.64" y2="250.96" xlink:href="#linear-gradient-receptionist-1-70"/><linearGradient id="linear-gradient-4-receptionist-1-70" x1="243.26" y1="186.29" x2="322.11" y2="241.9" xlink:href="#linear-gradient-receptionist-1-70"/><linearGradient id="linear-gradient-5-receptionist-1-70" x1="346.58" y1="271.36" x2="429.65" y2="450.55" xlink:href="#linear-gradient-receptionist-1-70"/><linearGradient id="linear-gradient-6-receptionist-1-70" x1="392.92" y1="249.88" x2="476" y2="429.06" xlink:href="#linear-gradient-receptionist-1-70"/><linearGradient id="linear-gradient-7-receptionist-1-70" x1="-938.66" y1="1579.43" x2="-901.22" y2="1630.59" gradientTransform="translate(1289.88 1977.06) scale(1 -1)" xlink:href="#linear-gradient-receptionist-1-70"/><linearGradient id="linear-gradient-8-receptionist-1-70" x1="238.13" y1="427.72" x2="234.22" y2="221.82" gradientUnits="userSpaceOnUse"><stop offset=".02" stop-color="#fff" stop-opacity="0"/><stop offset=".58" stop-color="#fff" stop-opacity=".39"/><stop offset="1" stop-color="#fff"/></linearGradient><linearGradient id="linear-gradient-9-receptionist-1-70" x1="-1050.02" y1="1768.32" x2="-1052.77" y2="1697.68" gradientTransform="translate(1289 1979.9) scale(1 -1)" xlink:href="#linear-gradient-receptionist-1-70"/></defs><g id="background_receptionist-1-70"><path class="cls-3_receptionist-1-70 targetColor" d="M483.56,333.71c-2.98,19.58-8.34,34.94-18.12,47.92-6.94,9.23-16.13,17.27-28.25,24.77-.94.57-1.86,1.17-2.8,1.67-10.62,6.13-21.97,10.91-33.77,14.24-17.18,4.77-34.87,7.47-52.68,8.04-43.95,1.83-88.11-5.15-131.82-.4-27.85,3.01-55.11,10.74-83.11,11.9-44.15,1.81-80.17-18.76-101.58-56.66-.32-.59-.66-1.17-.97-1.77s-.64-1.17-.96-1.78c-6.46-12.51-11.72-25.6-15.71-39.09-7.76-25.32-12.42-52.84-4.39-78.06,8.21-25.8,28.36-45.6,46.39-65.81,21.84-24.48,41.37-50.94,58.32-79.03,10.66-17.68,20.45-36.17,34.58-51.2,15.02-15.98,34.54-23.62,55.11-29.76,23.01-6.85,44.42,4.3,65.5,12.55,48.08,18.76,103.5,18.64,146.87,46.56,36.42,23.45,59.15,64.29,68.21,106.71,9.06,42.41,5.75,86.37-.81,129.21Z" style="fill: rgb(72, 176, 234);"/><path class="cls-1_receptionist-1-70 targetColor" d="M465.45,381.63c-6.94,9.23-16.13,17.27-28.25,24.77-.94.57-1.86,1.17-2.8,1.67-4.56,2.12-9.22,4.07-13.8,5.97l-19.93,8.27c-17.18,4.77-34.87,7.47-52.68,8.04-43.95,1.83-88.11-5.15-131.82-.4-27.85,3.01-55.11,10.74-83.11,11.9-44.15,1.81-80.17-18.76-101.58-56.66-.32-.59-.66-1.17-.97-1.77s-.64-1.17-.96-1.78h435.92Z" style="fill: rgb(72, 176, 234);"/></g><g id="character_receptionist-1-70"><path class="cls-12_receptionist-1-70" d="M275.72,194.91c-.89,3.86-1.76,8.21-.77,11.95,1.17,4.2-1.06,2.56-3.71,6.54-2.54,3.54-6.36,5.96-10.65,6.75-4.27.75-8.65.51-12.8-.7-3.41-.9-10.1,2.35-11.54-.89-.6-1.59-.9-3.27-.89-4.96-.2-3.52,2.67-11.93,3.52-15.34.32-1.03.52-2.1.59-3.18,0-2.44-1.86-4.43-2.9-6.65-.98-2.11-1.24-4.47-.75-6.74.59-2.65,2.18-5.01,2.64-7.68.17-1.31.22-2.63.16-3.95-.17-2.43.32-4.86,1.4-7.04,8.41-14.41,27.09-5.01,30.63-1.98,3.54,3.03,5.14,8.14,5.15,12.9s1.48,14.48.39,19.14c-.16.6-.26,1.21-.46,1.83Z"/><path class="cls-13_receptionist-1-70" d="M210.84,227.87s-2.76-4.85-3.95-5.58-3.29-2.73-3.92-2.27c-1.1.82,3.67,5.05-.59,4.69-.68,0-4.09,0-5.75,1.55-1.26,1.22-1.28,3.24-.06,4.49.07.07.14.13.21.2,1.11.75,4.96,1.1,7.04,1.04,2.02-.14,4.03.24,5.86,1.09"/><path class="cls-13_receptionist-1-70" d="M240.23,207.2c-1,3.11-1.72,6.3-2.16,9.53-.2,3.34-1.76,17.4-2.35,18.08s-25.73-7.88-25.73-7.88c0,0-1.52,2.15-.3,6.19,0,0,18.76,16.93,30.04,17.59,11.28.66,9.87-26.17,9.87-26.17"/><path class="cls-14_receptionist-1-70 targetColor" d="M239.73,207.3l-8.99,26.91.77,7.93c.47,4.75,4.07,8.6,8.78,9.38h0l-.56-44.22Z" style="fill: rgb(72, 176, 234);"/><path class="cls-2_receptionist-1-70" d="M239.73,207.3l-8.99,26.91.77,7.93c.47,4.75,4.07,8.6,8.78,9.38h0l-.56-44.22Z"/><path class="cls-14_receptionist-1-70 targetColor" d="M273.58,208.19c0-1.84-1.37-3.38-3.19-3.62-1.34-.18-3.17-.46-5.68-.91-6.64-1.17-9.1-.61-13.9.3-8.75,1.67-9.74,2.2-11.06,3.34s-7.45,21.11-4.35,30.49c.64,1.97,2.5,6.66,2.84,9.12,2.03,14.59-.6,35.6-.6,35.6,0,0-11.78,9.66,16.01,12.5,10.3,1.06,20.22-6.07,20.22-6.07l-.29-80.74Z" style="fill: rgb(72, 176, 234);"/><path class="cls-5_receptionist-1-70" d="M248.95,204.33c3.63,3.57,7.51,6.88,11.6,9.91.49.32.72.92.57,1.49l-.63.82s-8.77-7.04-13.29-11.37l1.75-.84Z"/><polygon class="cls-6_receptionist-1-70" points="273.43 218.32 273.43 273.05 260.1 266.02 268.18 233.22 273.43 218.32"/><path class="cls-13_receptionist-1-70" d="M283.07,257.92h-1.74l-50.19-.33c-1.07.08-2.15-.1-3.14-.53-.99-.48-1.52-1.58-1.27-2.65.49-.87,1.36-1.46,2.35-1.62,8.01-2.35,16.56-1.64,24.91-1.43,6.95.18,14.25-.07,20.74-2.84,2.99-1.17,6.17-1.75,9.38-1.7,1.85,0,2.87-.39,3.74,1.07.64,1.07.4,3.88.21,5.07-.19,1.82-1.24,3.44-2.83,4.36-.68.34-1.41.54-2.17.6Z"/><path class="cls-14_receptionist-1-70 targetColor" d="M272.33,205.59s4.29,4.21,9.81,21.55c2.04,6.45,5.93,20.86,5.93,20.86,0,0-7.62.63-13.37.63-2.58-14.94-9.31-18.57-10.46-25.47s4.63-18.96,8.08-17.58Z" style="fill: rgb(72, 176, 234);"/><path class="cls-13_receptionist-1-70" d="M261.85,186.14l.22,17.68c-1.44,2.11-3.92,3.28-6.47,3.04-6.55-.73-6.27-2.67-6.27-2.67,0,0,0-9.81-.26-12.01"/><path class="cls-4_receptionist-1-70" d="M261.97,191.89l-.08-5.34-12.9,6.72c.09.83.27,8.06.32,10.14,3.65,1.09,11.12-5.68,12.66-11.53Z"/><path class="cls-13_receptionist-1-70" d="M264.78,168.57s-.55,17.4-5.6,23.36c-5.35,6.29-10.2,5.3-12.61,4.69-5.77-1.37-6.58-17.11-6.77-21.45-.48-11.23,15.01-21.34,24.98-6.6Z"/><path class="cls-13_receptionist-1-70" d="M262.59,179.19c.02-1.02.87-1.82,1.88-1.8.35,0,.69.12.98.31,2.58,1.17.16,5.7-.84,6.93-.77.75-1.87,1.08-2.93.87"/><path class="cls-12_receptionist-1-70" d="M245.08,165.19c.45,2.23,1.18,4.39,2.17,6.44,1.01,2.06,2.69,3.72,4.77,4.69,2.52.83,5.25.83,7.77,0,1.17-.44,2.44-.54,3.66-.28,1.11.39,2.13,1.44,3.26,1.09s1.35-1.51,1.44-2.54c.31-2.38-.09-4.8-1.17-6.94-.71-1.22-1.62-2.31-2.7-3.22-5.04-4.47-12.9-5.99-18.76-2.64-.75.43-3.14,1.84-3.14,2.85.07,2.06,2.63.27,2.7.56Z"/></g><g id="plant_receptionist-1-70"><path class="cls-14_receptionist-1-70 targetColor" d="M406.3,220.56c2.98-5.73,8.49-11.07,14.93-10.55,1.12.04,2.2.43,3.1,1.1.92.91,1.52,2.1,1.69,3.39,2.76,12.44-10.99,23.64-9.57,36.35.59,5.14,3.6,9.62,5.92,14.24s3.95,10.2,1.72,14.87c-1.52,3.19-4.57,5.31-7.19,7.67-2.61,2.36-5.08,5.52-4.69,9.04.16,1.76,1.03,3.41,1.03,5.18,0,3.44-3.13,6.05-6.25,7.5s-6.64,2.42-8.98,4.95c-2.56,2.77-3.12,6.81-5.01,10.07-.29.59-.74,1.1-1.29,1.45-1.36.55-2.92,0-3.64-1.28-.66-1.27-.98-2.68-.94-4.1l-1.71-31.1c-.36-6.4-.72-12.9.21-19.21,1.38-9.38,5.5-18.1,9.97-26.41,4.03-7.56,6.78-15.62,10.69-23.17Z" style="fill: rgb(72, 176, 234);"/><path class="cls-14_receptionist-1-70 targetColor" d="M354.21,307.93c-6.4-4.27-13.24-9.59-14.22-17.21-.36-1.84.07-3.74,1.17-5.25,1.17-1.4,3.64-1.81,4.87-.42.93,1.04,1.65,3.08,2.92,2.5.87-.4.75-1.65.46-2.56-2.18-6.73-6.37-13.3-5.3-20.29.33-2.12,2.04-4.63,4.06-3.88.68.31,1.24.83,1.58,1.49,2.2,3.46,2.4,8.61,6.1,10.38.17-1.84,1-3.55,2.35-4.82,2.09,3.07,2.09,7.04,2.95,10.65,1.74,7.18,6.94,12.9,11.62,18.62s9.18,12.32,9.04,19.7c-1.68,1.36-4.62-.84-6.2.62-1.27,1.17-.23,3.26-.42,4.97-.22,1.99-2.88,3.26-4.69,2.5-1.81-.76-2.23-3.94-3.21-5.51-3.14-4.94-8.31-8.29-13.06-11.48Z" style="fill: rgb(72, 176, 234);"/><path class="cls-10_receptionist-1-70" d="M354.21,307.93c-6.4-4.27-13.24-9.59-14.22-17.21-.36-1.84.07-3.74,1.17-5.25,1.17-1.4,3.64-1.81,4.87-.42.93,1.04,1.65,3.08,2.92,2.5.87-.4.75-1.65.46-2.56-2.18-6.73-6.37-13.3-5.3-20.29.33-2.12,2.04-4.63,4.06-3.88.68.31,1.24.83,1.58,1.49,2.2,3.46,2.4,8.61,6.1,10.38.17-1.84,1-3.55,2.35-4.82,2.09,3.07,2.09,7.04,2.95,10.65,1.74,7.18,6.94,12.9,11.62,18.62s9.18,12.32,9.04,19.7c-1.68,1.36-4.62-.84-6.2.62-1.27,1.17-.23,3.26-.42,4.97-.22,1.99-2.88,3.26-4.69,2.5-1.81-.76-2.23-3.94-3.21-5.51"/><path class="cls-14_receptionist-1-70 targetColor" d="M356.65,296.85c-4.69-10.06,2.83-21.11,8.83-30.49,1.37-1.82,2.25-3.96,2.56-6.21-.06-2.06-.55-4.09-1.45-5.95-3.74-9.38-6.65-19.86-3.75-29.56,1.62-5.42,4.92-10.15,7.41-15.24,3.86-7.89,5.74-16.61,5.45-25.4-.15-4.51-.87-9.09,0-13.51.87-4.42,3.95-8.83,8.41-9.56,4.91-.8,9.38,3.1,11.87,7.45,7.29,13.06,2.15,29.42,4.6,44.18,2.04,12.24,9.38,24.2,6.39,36.23-2.05,8.38-8.97,15.42-9.25,24,5.21-.38,10.07,4.14,10.68,9.38.61,5.24-2.63,10.42-7.27,12.79-3.94,2.01-9.58,3.19-10.06,7.59-.25,2.25,1.17,4.34,1.54,6.58,1.29,7.81-9.38,21.58-15.37,13.33-3.01-4.12-3.52-8.56-7.56-12.51-4.44-4.41-10.27-7.2-13-13.11Z" style="fill: rgb(72, 176, 234);"/><path class="cls-11_receptionist-1-70" d="M414.68,287.67c0,.96-.14,1.91-.4,2.83-.4,1.44-1.06,2.8-1.95,4.01-1.62,2.26-3.88,3.98-6.48,4.94-4.15,1.49-7.9,4.32-8.95,8.6-.26,1.08.8,3.25,1.93,5.45-.29.26-.57.53-.84.81-2.56,2.77-3.12,6.8-5.01,10.07-.3.59-.74,1.09-1.29,1.45-1.36.55-2.92,0-3.64-1.28-.43-.71-.7-1.51-.79-2.35,3.45-3.35,5.98-9.02,5.3-13.06-.36-2.24-1.77-4.33-1.52-6.59.49-4.39,6.12-5.57,10.06-7.57,4.69-2.35,7.89-7.6,7.28-12.79s-5.49-9.7-10.69-9.38c.28-8.62,7.21-15.58,9.3-23.96,1.96-7.84-.49-15.65-2.99-23.53.72-1.59,1.49-3.17,2.29-4.69,1.85-3.77,4.76-6.92,8.36-9.08-1.74,4.43-2.9,8.85-2.44,13.19,3.44,33.09-6.03,38.14-7.4,46.67,5.22.23,9.91,11,9.86,16.26Z"/><path class="cls-14_receptionist-1-70 targetColor" d="M385.29,397.45h-8.06c-6.41,0-11.68-5.03-11.98-11.43l-2.67-56.42c-.19-3.75,2.7-6.94,6.45-7.13.12,0,.23,0,.35,0h24.8c3.76,0,6.81,3.05,6.82,6.81,0,.15,0,.3-.01.45l-3.72,56.53c-.42,6.3-5.65,11.21-11.97,11.21Z" style="fill: rgb(72, 176, 234);"/><path class="cls-9_receptionist-1-70" d="M385.33,397.45h-8.15c-6.38,0-11.64-5.01-11.94-11.39l-2.65-55.98c-.19-4.02,2.92-7.44,6.95-7.63.11,0,.22,0,.34,0h23.79c4.03,0,7.29,3.27,7.29,7.3,0,.16,0,.32-.02.47l-3.68,56.06c-.41,6.28-5.63,11.16-11.93,11.16Z"/></g><g id="desk_receptionist-1-70"><rect class="cls-14_receptionist-1-70 targetColor" x="117.56" y="262.93" width="237.38" height="132.1" style="fill: rgb(72, 176, 234);"/><rect class="cls-7_receptionist-1-70" x="117.56" y="262.93" width="237.38" height="132.1"/><path class="cls-14_receptionist-1-70 targetColor" d="M115.5,255.37h243.23c2.28,0,4.13,1.85,4.13,4.13h0c0,2.28-1.85,4.13-4.13,4.13H115.5c-2.28,0-4.13-1.85-4.13-4.13h0c0-2.28,1.85-4.13,4.13-4.13Z" style="fill: rgb(72, 176, 234);"/><path class="cls-8_receptionist-1-70" d="M115.5,255.37h243.23c2.28,0,4.13,1.85,4.13,4.13h0c0,2.28-1.85,4.13-4.13,4.13H115.5c-2.28,0-4.13-1.85-4.13-4.13h0c0-2.28,1.85-4.13,4.13-4.13Z"/><rect class="cls-14_receptionist-1-70 targetColor" x="152.31" y="243.9" width="30.28" height="11.7" rx="4.95" ry="4.95" style="fill: rgb(72, 176, 234);"/></g></svg>