<svg version="1.1" id="Layer_1" xmlns="http://www.w3.org/2000/svg" xmlns:xlink="http://www.w3.org/1999/xlink" x="0px" y="0px" viewBox="0 0 500 500" style="width: 178px;" xml:space="preserve" data-imageid="teacher-93" imageName="Teacher" class="illustrations_image">
<style type="text/css">
	.st0_teacher-93{fill:#FFFFFF;}
	.st1_teacher-93{fill:#231F20;}
	.st2_teacher-93{fill:#D1D3D4;}
	.st3_teacher-93{fill:#68E1FD;}
</style>
<g id="Line_teacher-93">
	<rect x="193.7" y="121.3" class="st0_teacher-93" width="269.7" height="201.1"/>
	<path class="st1_teacher-93" d="M463.4,323.1H193.7c-0.4,0-0.7-0.3-0.7-0.7l0,0V121.3c0-0.4,0.3-0.7,0.7-0.7h269.7c0.4,0,0.7,0.3,0.7,0.7v0&#10;&#9;&#9;v201.1C464.1,322.8,463.7,323.1,463.4,323.1z M194.4,321.7h268.3V122H194.4L194.4,321.7z"/>
	<path class="st2_teacher-93" d="M318.9,237.7h-86.5c-0.4,0-0.7-0.3-0.7-0.7c0-0.4,0.3-0.7,0.7-0.7h86.5c0.4,0,0.7,0.3,0.7,0.7&#10;&#9;&#9;S319.3,237.7,318.9,237.7C318.9,237.7,318.9,237.7,318.9,237.7z"/>
	<path class="st2_teacher-93" d="M318.9,250h-86.5c-0.4,0-0.7-0.3-0.7-0.7c0-0.4,0.3-0.7,0.7-0.7h86.5c0.4,0,0.7,0.3,0.7,0.7&#10;&#9;&#9;S319.3,250,318.9,250C318.9,250,318.9,250,318.9,250z"/>
	<path class="st2_teacher-93" d="M318.9,262.2h-86.5c-0.4,0-0.7-0.3-0.7-0.7c0-0.4,0.3-0.7,0.7-0.7h86.5c0.4,0,0.7,0.3,0.7,0.7&#10;&#9;&#9;C319.6,261.9,319.3,262.2,318.9,262.2z"/>
	<path class="st2_teacher-93" d="M447.4,311.2H209.6c-0.4,0-0.7-0.3-0.7-0.7l0,0V133.2c0-0.4,0.3-0.7,0.7-0.7h237.8c0.4,0,0.7,0.3,0.7,0.7&#10;&#9;&#9;c0,0,0,0,0,0v177.3C448.1,310.9,447.8,311.2,447.4,311.2z M210.3,309.8h236.4V133.9H210.3V309.8z"/>
	<path class="st2_teacher-93" d="M431.9,250h-87.7c-0.4,0-0.7-0.3-0.7-0.7c0-0.2,0.1-0.3,0.2-0.4c0.9-3.7,0.4-59-0.1-95.7&#10;&#9;&#9;c0-0.3,0.2-0.6,0.4-0.7c0.3-0.1,0.6,0,0.8,0.2l87.7,96.2c0.2,0.2,0.2,0.5,0.1,0.8C432.4,249.8,432.1,250,431.9,250z M345,248.6&#10;&#9;&#9;h85.3L344.9,155C345.4,188,346,240,345,248.6L345,248.6z"/>
	<path class="st2_teacher-93" d="M413.4,256.4c-0.4,0-0.7-0.3-0.7-0.7c0-0.2-0.6-18.9,15.5-22.5c0.4-0.1,0.8,0.2,0.8,0.5&#10;&#9;&#9;c0.1,0.4-0.2,0.8-0.5,0.8c-15,3.3-14.4,20.9-14.4,21.1C414.1,256.1,413.9,256.4,413.4,256.4L413.4,256.4z"/>
	<path class="st2_teacher-93" d="M358.5,250c-0.4,0-0.7-0.3-0.7-0.7c0,0,0,0,0,0v-10.6h-13.6c-0.4,0-0.7-0.3-0.7-0.7c0-0.4,0.3-0.7,0.7-0.7&#10;&#9;&#9;h14.4c0.4,0,0.7,0.3,0.7,0.7v11.2C359.2,249.7,358.9,250,358.5,250C358.5,250,358.5,250,358.5,250z"/>
	<path class="st2_teacher-93" d="M332.2,194.2v-0.9c0-0.4,0-0.7,0.1-1.1c0.1-0.6,0.4-1.2,0.8-1.7c0.2-0.3,0.5-0.6,0.8-0.8l1.1-1.1&#10;&#9;&#9;c0.3-0.3,0.6-0.6,0.8-0.9c0.5-0.9,0.4-2.1-0.3-2.9c-0.4-0.5-1.1-0.7-1.7-0.6c-0.3,0-0.7,0.1-1,0.2c-0.3,0.1-0.6,0.3-0.8,0.6&#10;&#9;&#9;c-0.2,0.2-0.4,0.5-0.5,0.8c-0.1,0.3-0.2,0.7-0.2,1l-3-0.3c0.1-0.7,0.3-1.4,0.6-2.1c0.3-0.6,0.7-1.1,1.2-1.6c0.5-0.4,1.1-0.8,1.7-1&#10;&#9;&#9;c1.3-0.4,2.8-0.4,4.1,0c0.6,0.2,1.2,0.5,1.7,0.9c0.5,0.4,0.9,0.9,1.1,1.5c0.3,0.6,0.4,1.3,0.4,2c0,0.5-0.1,0.9-0.2,1.4&#10;&#9;&#9;c-0.1,0.4-0.3,0.8-0.5,1.1c-0.2,0.3-0.5,0.7-0.8,0.9c-0.3,0.3-0.6,0.6-1,1s-0.6,0.5-0.8,0.7c-0.2,0.2-0.4,0.4-0.5,0.6&#10;&#9;&#9;c-0.1,0.2-0.2,0.4-0.2,0.7c-0.1,0.3-0.1,0.6-0.1,0.9v0.6L332.2,194.2z M331.7,197.6c0-0.5,0.2-1,0.6-1.4c0.4-0.4,0.9-0.6,1.4-0.6&#10;&#9;&#9;c0.5,0,1,0.2,1.4,0.5c0.4,0.3,0.6,0.8,0.6,1.3c0,0.5-0.2,1-0.6,1.4c-0.4,0.4-0.9,0.6-1.4,0.6c-0.3,0-0.5,0-0.8-0.1&#10;&#9;&#9;c-0.2-0.1-0.4-0.2-0.6-0.4c-0.2-0.2-0.3-0.4-0.4-0.6C331.7,198.1,331.7,197.9,331.7,197.6z"/>
	<path class="st2_teacher-93" d="M411.6,190.8c-0.2-0.3-0.5-0.6-0.9-0.7c-0.4-0.2-0.8-0.3-1.2-0.3c-0.4,0-0.8,0.1-1.2,0.3&#10;&#9;&#9;c-0.3,0.2-0.6,0.4-0.9,0.8c-0.2,0.3-0.4,0.6-0.5,1c-0.1,0.4-0.2,0.8-0.2,1.2c0,0.4,0.1,0.8,0.2,1.2c0.1,0.4,0.3,0.7,0.5,1&#10;&#9;&#9;c0.2,0.3,0.5,0.6,0.9,0.8c0.4,0.2,0.8,0.3,1.2,0.3c0.4,0,0.8-0.1,1.2-0.2c0.4-0.1,0.7-0.4,0.9-0.7l1.6,1.6c-0.4,0.5-1,0.8-1.6,1&#10;&#9;&#9;c-0.7,0.3-1.4,0.4-2.1,0.4c-0.7,0-1.4-0.1-2.1-0.4c-0.6-0.2-1.2-0.6-1.8-1.1c-0.5-0.5-0.9-1.1-1.2-1.7c-0.3-0.7-0.4-1.5-0.4-2.2&#10;&#9;&#9;c0-0.8,0.1-1.5,0.4-2.2c0.5-1.3,1.6-2.3,2.9-2.8c0.7-0.3,1.4-0.4,2.1-0.4c0.7,0,1.5,0.1,2.2,0.4c0.6,0.2,1.2,0.6,1.7,1.2&#10;&#9;&#9;L411.6,190.8z"/>
	<path class="st2_teacher-93" d="M268.6,193.6h-4.7v-1.5l4.4-6.6h2.1v6.6h1.4v1.5h-1.4v2.1h-1.7V193.6z M268.6,187.5L268.6,187.5l-2.9,4.6h2.9&#10;&#9;&#9;L268.6,187.5z"/>
	<path class="st2_teacher-93" d="M279.8,187h-4.2l-0.1,2.2c0.2-0.1,0.4-0.1,0.6-0.1h0.6c0.5,0,0.9,0.1,1.4,0.2c0.4,0.1,0.8,0.4,1.1,0.6&#10;&#9;&#9;c0.3,0.3,0.6,0.6,0.8,1c0.2,0.4,0.3,0.9,0.3,1.4c0,0.5-0.1,1-0.3,1.5c-0.2,0.4-0.5,0.8-0.8,1.1c-0.3,0.3-0.8,0.6-1.2,0.7&#10;&#9;&#9;c-0.5,0.2-1,0.2-1.5,0.2c-0.8,0-1.5-0.2-2.2-0.6c-0.6-0.4-1-1-1.3-1.6l1.6-0.6c0.3,0.8,1.1,1.4,1.9,1.4c0.3,0,0.5,0,0.7-0.1&#10;&#9;&#9;c0.5-0.2,0.8-0.5,1-1c0.1-0.3,0.2-0.5,0.1-0.8c0-0.3-0.1-0.7-0.2-1c-0.1-0.2-0.3-0.5-0.5-0.6c-0.2-0.2-0.5-0.3-0.7-0.3&#10;&#9;&#9;c-0.3-0.1-0.6-0.1-0.8-0.1c-0.2,0-0.4,0-0.6,0c-0.2,0-0.4,0.1-0.6,0.1c-0.2,0-0.4,0.1-0.6,0.2c-0.2,0.1-0.4,0.1-0.5,0.2l0.2-5.6&#10;&#9;&#9;h5.9L279.8,187z"/>
	<path class="st2_teacher-93" d="M281.9,188c0-0.4,0.1-0.7,0.2-1.1c0.3-0.6,0.8-1.2,1.4-1.4c0.7-0.3,1.4-0.3,2.1,0c0.3,0.1,0.6,0.3,0.9,0.6&#10;&#9;&#9;c0.2,0.2,0.4,0.5,0.6,0.9c0.3,0.7,0.3,1.4,0,2.1c-0.1,0.3-0.3,0.6-0.6,0.9c-0.2,0.2-0.5,0.4-0.9,0.6c-0.7,0.3-1.4,0.3-2.1,0&#10;&#9;&#9;c-0.6-0.3-1.2-0.8-1.4-1.4C281.9,188.7,281.9,188.4,281.9,188z M285.9,188c0-0.3-0.1-0.7-0.4-0.9c-0.2-0.3-0.6-0.4-0.9-0.4&#10;&#9;&#9;c-0.7,0-1.3,0.6-1.3,1.3c0,0,0,0,0,0c0,0.3,0.1,0.7,0.4,0.9c0.2,0.2,0.6,0.4,0.9,0.4C285.3,189.3,285.9,188.7,285.9,188&#10;&#9;&#9;C285.9,188,285.9,188,285.9,188z M290.4,185l1.2,0.6l-6,10.6l-1.2-0.6L290.4,185z M288.8,193.2c0-0.3,0.1-0.7,0.2-1&#10;&#9;&#9;c0.3-0.6,0.8-1.2,1.4-1.4c0.7-0.3,1.4-0.3,2.1,0c0.3,0.1,0.6,0.3,0.9,0.6c0.2,0.2,0.4,0.5,0.6,0.9c0.3,0.7,0.3,1.4,0,2.1&#10;&#9;&#9;c-0.3,0.6-0.8,1.2-1.4,1.4c-0.7,0.3-1.4,0.3-2.1,0c-0.3-0.1-0.6-0.3-0.9-0.6c-0.2-0.2-0.4-0.5-0.6-0.9&#10;&#9;&#9;C288.9,194,288.8,193.6,288.8,193.2L288.8,193.2z M292.8,193.2c0-0.7-0.6-1.2-1.3-1.2c-0.7,0-1.2,0.6-1.2,1.3&#10;&#9;&#9;c0,0.7,0.6,1.2,1.3,1.2c0.3,0,0.6-0.1,0.9-0.4C292.7,193.9,292.8,193.6,292.8,193.2L292.8,193.2z"/>
	<path class="st2_teacher-93" d="M382.3,254.8v7.1h0.1c0.1-0.2,0.3-0.4,0.5-0.5c0.2-0.2,0.5-0.4,0.7-0.5c0.3-0.2,0.7-0.3,1-0.4&#10;&#9;&#9;c0.4-0.1,0.8-0.2,1.2-0.2c0.7,0,1.4,0.1,2,0.4c0.6,0.3,1.1,0.7,1.5,1.1c0.4,0.5,0.8,1.1,1,1.7c0.2,0.7,0.4,1.4,0.4,2.1&#10;&#9;&#9;c0,0.7-0.1,1.4-0.4,2.1c-0.2,0.6-0.6,1.2-1,1.7c-0.4,0.5-1,0.9-1.5,1.2c-0.7,0.3-1.4,0.4-2.1,0.4c-0.7,0-1.4-0.2-2-0.5&#10;&#9;&#9;c-0.6-0.3-1.1-0.8-1.5-1.4l0,0v1.5h-2.4v-15.9H382.3z M388.1,265.6c0-0.4-0.1-0.8-0.2-1.2c-0.1-0.4-0.3-0.7-0.5-1&#10;&#9;&#9;c-0.2-0.3-0.6-0.6-0.9-0.8c-0.4-0.2-0.8-0.3-1.3-0.3c-0.4,0-0.9,0.1-1.2,0.3c-0.4,0.2-0.7,0.5-0.9,0.8c-0.3,0.3-0.5,0.7-0.6,1&#10;&#9;&#9;c-0.1,0.4-0.2,0.8-0.2,1.2c0,0.4,0.1,0.8,0.2,1.2c0.1,0.4,0.3,0.7,0.6,1c0.3,0.3,0.6,0.6,0.9,0.8c0.4,0.2,0.8,0.3,1.2,0.3&#10;&#9;&#9;c0.4,0,0.9-0.1,1.3-0.3c0.4-0.2,0.7-0.4,0.9-0.8c0.2-0.3,0.4-0.7,0.5-1C388.1,266.4,388.1,266,388.1,265.6z"/>
	<path class="st2_teacher-93" d="M382.3,254.8v7.1h0.1c0.1-0.2,0.3-0.4,0.5-0.5c0.2-0.2,0.5-0.4,0.7-0.5c0.3-0.2,0.7-0.3,1-0.4&#10;&#9;&#9;c0.4-0.1,0.8-0.2,1.2-0.2c0.7,0,1.4,0.1,2,0.4c0.6,0.3,1.1,0.7,1.5,1.1c0.4,0.5,0.8,1.1,1,1.7c0.2,0.7,0.4,1.4,0.4,2.1&#10;&#9;&#9;c0,0.7-0.1,1.4-0.4,2.1c-0.2,0.6-0.6,1.2-1,1.7c-0.4,0.5-1,0.9-1.5,1.2c-0.7,0.3-1.4,0.4-2.1,0.4c-0.7,0-1.4-0.2-2-0.5&#10;&#9;&#9;c-0.6-0.3-1.1-0.8-1.5-1.4l0,0v1.5h-2.4v-15.9H382.3z M388.1,265.6c0-0.4-0.1-0.8-0.2-1.2c-0.1-0.4-0.3-0.7-0.5-1&#10;&#9;&#9;c-0.2-0.3-0.6-0.6-0.9-0.8c-0.4-0.2-0.8-0.3-1.3-0.3c-0.4,0-0.9,0.1-1.2,0.3c-0.4,0.2-0.7,0.5-0.9,0.8c-0.3,0.3-0.5,0.7-0.6,1&#10;&#9;&#9;c-0.1,0.4-0.2,0.8-0.2,1.2c0,0.4,0.1,0.8,0.2,1.2c0.1,0.4,0.3,0.7,0.6,1c0.3,0.3,0.6,0.6,0.9,0.8c0.4,0.2,0.8,0.3,1.2,0.3&#10;&#9;&#9;c0.4,0,0.9-0.1,1.3-0.3c0.4-0.2,0.7-0.4,0.9-0.8c0.2-0.3,0.4-0.7,0.5-1C388.1,266.4,388.1,266,388.1,265.6z"/>
	<path class="st2_teacher-93" d="M300.1,208.7h-73c-0.4,0-0.7-0.3-0.7-0.7c0-0.2,0.1-0.4,0.3-0.5l73-57.2c0.3-0.2,0.8-0.2,1,0.1c0,0,0,0,0,0&#10;&#9;&#9;c0.2,0.3,0.2,0.7-0.1,1c0,0,0,0,0,0l-71.4,55.9h71c0.4,0,0.7,0.3,0.7,0.7C300.8,208.4,300.5,208.7,300.1,208.7L300.1,208.7z"/>
	<path class="st2_teacher-93" d="M254.1,214.3c-0.1,0-0.3,0-0.4-0.1c-0.3-0.2-0.4-0.7-0.2-1c0,0,0,0,0,0c0.1-0.1,9-15-9.6-34.9&#10;&#9;&#9;c-0.3-0.3-0.3-0.7,0-1s0.7-0.3,1,0c10.1,10.8,12.2,20.2,12.2,26.1c0.1,3.7-0.7,7.4-2.5,10.6C254.5,214.2,254.3,214.3,254.1,214.3z"/>
	<path class="st2_teacher-93" d="M437.2,311.2h-39.9c-0.4,0-0.7-0.3-0.7-0.7v0v-16.6c0-0.4,0.3-0.7,0.7-0.7h0h39.9c0.4,0,0.7,0.3,0.7,0.7v0&#10;&#9;&#9;v16.6C437.9,310.9,437.6,311.2,437.2,311.2z M397.9,309.8h38.5v-15.2h-38.5V309.8z"/>
	<rect x="397.2" y="302.2" class="st2_teacher-93" width="39.9" height="8.3"/>
	<path class="st2_teacher-93" d="M437.2,311.2h-39.9c-0.4,0-0.7-0.3-0.7-0.7v0v-8.3c0-0.4,0.3-0.7,0.7-0.7h0h39.9c0.4,0,0.7,0.3,0.7,0.7v0v8.3&#10;&#9;&#9;C437.9,310.9,437.6,311.2,437.2,311.2z M397.9,309.8h38.5v-6.9h-38.5V309.8z"/>
</g>
<g id="Character_teacher-93">
	<path class="st0_teacher-93" d="M286.2,239.5c-3.7,0.5-17.8,10.8-21.5,11.5c0,0-6.3,6.3-13.8,12.9c4,6.9,7.3,14.2,9.9,21.8&#10;&#9;&#9;c6.5-7.2,12.3-14.4,14-16.5c1.4-2,3-3.8,4.6-5.6c2.6-2.4,6-4.1,8.8-6.1c3.1-2.2,6-4.8,7.8-8.1c0.8-1.3,1.1-2.8,1-4.3&#10;&#9;&#9;C296.5,241.4,289.5,239.1,286.2,239.5z"/>
	<path class="st1_teacher-93" d="M260.9,286.4h-0.1c-0.2,0-0.5-0.2-0.5-0.5c-2.6-7.5-5.9-14.8-9.9-21.7c-0.2-0.3-0.1-0.7,0.1-0.9&#10;&#9;&#9;c7.4-6.6,13.7-12.9,13.8-12.9c0.1-0.1,0.2-0.2,0.4-0.2c1.7-0.3,6-2.9,10.1-5.5c4.8-3,9.4-5.8,11.4-6l0,0c3.5-0.4,10.9,1.9,11.6,6.2&#10;&#9;&#9;c0.2,1.7-0.2,3.3-1,4.7c-2,3.8-5.5,6.6-8,8.4c-1,0.7-2.1,1.4-3.2,2.1c-2,1.2-3.8,2.5-5.5,4c-1.1,1.1-2.2,2.4-3.1,3.7&#10;&#9;&#9;c-0.5,0.6-1,1.3-1.5,1.9l-1.1,1.4c-2.4,2.9-7.4,9.1-12.8,15.1C261.2,286.4,261.1,286.4,260.9,286.4z M251.9,264.1&#10;&#9;&#9;c3.7,6.5,6.8,13.3,9.3,20.3c5.1-5.7,9.7-11.4,12-14.2l1.1-1.4c0.5-0.6,1-1.2,1.4-1.8c1-1.4,2.1-2.6,3.3-3.8c1.8-1.6,3.7-3,5.8-4.1&#10;&#9;&#9;c1-0.7,2.1-1.3,3.1-2c2.4-1.7,5.7-4.3,7.6-7.9c0.7-1.2,1-2.5,0.9-3.9c-0.5-3.3-7.1-5.4-10-5.1l0,0c-1.7,0.2-6.6,3.2-10.9,5.9&#10;&#9;&#9;s-8.4,5.1-10.4,5.6C264.1,252.6,258.5,258.2,251.9,264.1L251.9,264.1z"/>
	<polygon class="st1_teacher-93" points="271.1,262.8 323.5,193.3 324.6,193.9 274,264.3 &#9;"/>
	<path class="st1_teacher-93" d="M274,265c-0.1,0-0.2,0-0.3-0.1l-2.9-1.6c-0.2-0.1-0.3-0.3-0.4-0.5c0-0.2,0-0.4,0.1-0.6l52.4-69.5&#10;&#9;&#9;c0.2-0.3,0.6-0.4,0.9-0.2l1.1,0.6c0.3,0.2,0.5,0.6,0.3,1c0,0,0,0,0,0l-50.6,70.5C274.4,264.9,274.2,265,274,265z M272.1,262.5&#10;&#9;&#9;l1.6,0.9l45.8-63.8L272.1,262.5z"/>
	<path class="st0_teacher-93" d="M263.6,252.1c3.9-4.2,7.9-10.6,9.9-13.1c0.4-0.5,0.8-1,1.4-1.4c0.7-0.3,1.4-0.5,2.2-0.5&#10;&#9;&#9;c4.7-0.3,9.3,0.1,13.9,1.2c1.4,0.2,2.8,0.9,3.8,1.9c0.3,0.3,0.5,0.7,0.5,1.1c0,0.8-0.7,1.3-1.4,1.7c-2.2,1-4.6,1.6-7,1.7&#10;&#9;&#9;c-3.4,0.4-4.6-0.4-8.1-0.4c0.4,0,1.3,3.6,0.5,5.9s-2.5,4-4.2,5.8"/>
	<path class="st1_teacher-93" d="M275,256.7c-0.2,0-0.3-0.1-0.5-0.2c-0.3-0.3-0.3-0.7,0-1l0.1-0.1c1.7-1.5,3-3.4,3.9-5.4&#10;&#9;&#9;c0.5-1.7,0.4-3.5-0.2-5.1c-0.2-0.1-0.3-0.4-0.3-0.6c0-0.4,0.3-0.7,0.7-0.7c1.2,0,2.4,0.1,3.6,0.3c1.5,0.2,3,0.3,4.5,0.1&#10;&#9;&#9;c2.3-0.1,4.6-0.7,6.7-1.6c0.3-0.2,1-0.6,1-1c0-0.3-0.2-0.5-0.3-0.7c-1-0.9-2.2-1.5-3.5-1.6c-4.5-1.1-9.1-1.5-13.7-1.2&#10;&#9;&#9;c-0.7,0-1.3,0.1-1.9,0.4c-0.5,0.3-0.8,0.7-1.2,1.2c-0.6,0.8-1.4,1.9-2.3,3.3c-2.3,3.5-4.8,6.8-7.6,9.9c-0.2,0.3-0.6,0.4-1,0.2&#10;&#9;&#9;s-0.4-0.6-0.2-1c0-0.1,0.1-0.1,0.2-0.2c2.7-3.1,5.2-6.3,7.4-9.8c0.9-1.4,1.8-2.5,2.4-3.3c0.4-0.6,0.9-1.1,1.5-1.5&#10;&#9;&#9;c0.8-0.4,1.6-0.6,2.5-0.6c4.7-0.3,9.5,0.1,14.1,1.2c1.6,0.2,3.1,1,4.2,2.1c0.4,0.4,0.7,1,0.7,1.6c0,0.6-0.3,1.5-1.8,2.3&#10;&#9;&#9;c-2.3,1.1-4.7,1.7-7.3,1.8c-1.6,0.2-3.2,0.1-4.8-0.1c-0.7-0.1-1.4-0.2-2.3-0.2c0.5,1.8,0.5,3.7,0,5.4c-1,2.2-2.4,4.3-4.2,5.9&#10;&#9;&#9;l-0.1,0.1C275.4,256.6,275.2,256.7,275,256.7z"/>
	<path class="st3_teacher-93 targetColor" d="M190,224.8c0,0,19.9,67.4,26,64.2s42.2-34.8,42.2-34.8l15.8,21c0,0-48.2,76.7-63.6,68.5s-31.4-51.5-31.4-51.5&#10;&#9;&#9;L190,224.8z" style="fill: rgb(104, 225, 253);"/>
	<path class="st3_teacher-93 targetColor" d="M90.6,282.6l-23.1-5.9c0.9-1.7,14.9-43.8,27.8-52c11-9.2,33.3-10.1,58.4-11.1c8-0.5,16.1,0.3,23.9,2.3&#10;&#9;&#9;c29.3,8.1,16.6,67.9,16.6,67.9s3.2,28.6,8.2,85.2c0,0-41.2,8-113.2,3.9C89.3,373.1,91.3,290.1,90.6,282.6z" style="fill: rgb(104, 225, 253);"/>
	<polygon class="st0_teacher-93" points="166.8,301.1 159.4,315.5 144.3,303.4 147.8,248.1 144.3,243.8 148.8,237 154.9,243.3 150.8,248 &#9;"/>
	<path class="st0_teacher-93" d="M156.6,209.1l3.8,18.8c0,0-5.9,12.5-18.5,10.4s-15-11.5-15-11.5l-5.2-36c0,0-10.7-13.5-5.3-28.1&#10;&#9;&#9;s39.4-15.2,42.4,5c0,0,7.2,21.2,6.4,30.9S156.6,209.1,156.6,209.1z"/>
	<path class="st1_teacher-93" d="M144.6,239.2c-1,0-1.9-0.1-2.9-0.2c-12.9-2.1-15.5-11.6-15.6-12l-5.1-35.9c-1.2-1.6-10.5-14.7-5.3-28.6&#10;&#9;&#9;c2.4-6.4,11.5-12.2,24.3-10.9c8.4,0.9,18,5.5,19.5,16c0.3,0.8,7.2,21.3,6.4,31c-0.7,8.3-6.4,10.5-8.5,11l3.6,18.2&#10;&#9;&#9;c0,0.1,0,0.3-0.1,0.4C160.9,228.3,155.6,239.2,144.6,239.2z M136.7,152.8c-8.2,0-17.2,3.3-19.8,10.1c-5.2,14,5.1,27.3,5.2,27.4&#10;&#9;&#9;c0.1,0.1,0.1,0.2,0.1,0.3l5.2,36c0.1,0.3,2.5,8.9,14.4,10.9c11.2,1.9,16.8-8.2,17.6-9.8l-3.7-18.6c0-0.2,0-0.4,0.1-0.6&#10;&#9;&#9;c0.1-0.2,0.3-0.3,0.5-0.3c0.3,0,7.2-0.9,8-9.9c0.8-9.4-6.3-30.4-6.4-30.6c-1.3-8.4-8.1-13.9-18.3-14.9&#10;&#9;&#9;C138.8,152.8,137.7,152.8,136.7,152.8z"/>
	<path class="st2_teacher-93" d="M165.4,195.6c0,0-1.3-3.8-15.3-1.4s-13.5,17.8-21.8,11s-3.9-18.9-4.7-30.1c-1.1-14.4-4.2-13.9-7.3-12.4&#10;&#9;&#9;c-10.8,5.3-7.4,27.9,7.4,48.1c5.2,7.1,37.8,20.4,42.1,1C168.2,201,165.4,195.6,165.4,195.6z"/>
	<path class="st1_teacher-93" d="M151.4,222.6c-11.3,0-24.9-6.9-28.2-11.4c-10.4-14.3-15.8-30.7-13.2-40.9c1-3.9,3.1-6.7,6.1-8.2&#10;&#9;&#9;c1.3-0.6,2.8-1.2,4.2-0.4c2.2,1.2,3.4,5.4,4,13.4c0.2,3.4,0.1,6.8-0.2,10.1c-0.5,7.6-0.9,14.9,4.7,19.4c1.4,1.2,2.6,1.7,3.6,1.6&#10;&#9;&#9;c1.5-0.2,2.9-1.8,4.5-3.8c2.6-3.2,6.2-7.6,13.2-8.9c13.7-2.4,15.8,1.1,16,1.8s2.8,6.1,0.4,16.6c-1,5.3-5.2,9.3-10.4,10.2&#10;&#9;&#9;C154.5,222.4,152.9,222.6,151.4,222.6z M118.7,162.7c-0.7,0.1-1.4,0.3-2.1,0.6c-2.7,1.3-4.5,3.8-5.4,7.3c-2.4,9.8,2.8,25.8,13,39.8&#10;&#9;&#9;c3.6,4.9,20.4,12.7,31.5,10.4c5.1-1.1,8.2-4.1,9.4-9.1c2.3-10.4-0.3-15.7-0.4-15.7v-0.1c-0.1-0.1-1.8-3.1-14.5-0.9&#10;&#9;&#9;c-6.5,1.1-9.7,5.1-12.3,8.4c-1.8,2.2-3.3,4.1-5.4,4.3c-1.4,0.1-2.9-0.4-4.6-1.9c-6.1-5-5.7-12.6-5.2-20.6c0.3-3.3,0.4-6.7,0.2-10&#10;&#9;&#9;c-0.6-7.2-1.7-11.3-3.3-12.3C119.3,162.7,119,162.7,118.7,162.7z"/>
	<path class="st0_teacher-93" d="M125.6,189.4c-0.9-2.4-2.8-4.3-5.2-5.4c-1.9-0.9-4-1.1-6-0.4c-3.2,1.2-4,4.2-3.4,7.2c0.2,1.3,0.7,2.5,1.2,3.7&#10;&#9;&#9;c2.5,4.8,8.4,6.7,13.2,4.2c0,0,0.1,0,0.1-0.1"/>
	<path class="st1_teacher-93" d="M121,200.5c-3.9,0-7.5-2.2-9.3-5.7c-0.6-1.2-1-2.5-1.3-3.9c-0.8-3.8,0.7-6.8,3.8-8c2.1-0.7,4.5-0.5,6.5,0.5&#10;&#9;&#9;c2.6,1.1,4.6,3.2,5.6,5.8c0.1,0.4-0.1,0.8-0.4,0.9c-0.4,0.1-0.8-0.1-0.9-0.4c-0.9-2.2-2.6-4-4.8-4.9c-1.7-0.9-3.6-1-5.4-0.4&#10;&#9;&#9;c-2.5,0.9-3.6,3.3-3,6.4c0.2,1.2,0.6,2.4,1.2,3.5c2.3,4.5,7.8,6.2,12.3,3.9c0,0,0.1,0,0.1-0.1c0.3-0.2,0.8-0.1,1,0.2&#10;&#9;&#9;c0.2,0.3,0.1,0.8-0.2,1c0,0-0.1,0-0.1,0.1C124.4,200,122.7,200.5,121,200.5z"/>
	<path class="st1_teacher-93" d="M158.4,190.1c-0.4,0-0.7,0-1.1-0.1c-6.5-0.6-11.3-6.3-10.8-12.8l0,0c0.6-6.5,6.3-11.3,12.8-10.8&#10;&#9;&#9;c6.5,0.6,11.3,6.3,10.8,12.8C169.6,185.4,164.5,190,158.4,190.1z M148,177.3c-0.5,5.7,3.7,10.8,9.5,11.3s10.8-3.7,11.3-9.5&#10;&#9;&#9;c0.5-5.7-3.7-10.8-9.5-11.3C153.6,167.3,148.5,171.5,148,177.3C148,177.3,148,177.3,148,177.3z"/>
	<path class="st1_teacher-93" d="M135,191.1c-0.4,0-0.7,0-1.1-0.1c-6.5-0.6-11.3-6.3-10.8-12.8l0.7,0.1l-0.7-0.1c0.6-6.5,6.3-11.3,12.8-10.8&#10;&#9;&#9;c6.5,0.6,11.3,6.3,10.8,12.8C146.2,186.4,141.1,191.1,135,191.1z M135,168.8c-5.7,0.3-10.2,5.1-9.9,10.9s5.1,10.2,10.9,9.9&#10;&#9;&#9;c5.7-0.3,10.2-5.1,9.9-10.9c-0.2-5.4-4.5-9.7-9.9-9.9C135.6,168.9,135.3,168.8,135,168.8z"/>
	<path class="st1_teacher-93" d="M197.7,323.1c-0.4,0-0.7-0.3-0.7-0.6l-7.7-85.4c0-0.4,0.2-0.7,0.6-0.8s0.7,0.2,0.8,0.6l7.7,85.4&#10;&#9;&#9;C198.4,322.7,198.2,323.1,197.7,323.1C197.8,323.1,197.8,323.1,197.7,323.1L197.7,323.1z"/>
	<path class="st1_teacher-93" d="M147.6,193.6c-0.6,0-1.2,0-1.8-0.1c-0.4,0-0.7-0.4-0.7-0.7c0-0.4,0.4-0.7,0.7-0.7c0,0,0.1,0,0.1,0&#10;&#9;&#9;c1,0.1,4.2,0.3,5.1-0.9c0.6-0.8-1.7-4.9-4.8-9c-0.2-0.3-0.2-0.7,0.1-1s0.7-0.2,1,0.1c2,2.5,6.3,8.6,4.8,10.6&#10;&#9;&#9;C151.3,193.3,149.2,193.6,147.6,193.6z"/>
	
		<ellipse transform="matrix(0.9997 -2.321080e-02 2.321080e-02 0.9997 -4.164 3.244)" class="st1_teacher-93" cx="137.7" cy="181" rx="1.6" ry="2.3"/>
	
		<ellipse transform="matrix(0.9485 -0.3168 0.3168 0.9485 -48.9654 57.6498)" class="st1_teacher-93" cx="152.8" cy="179.4" rx="1.6" ry="2.3"/>
	<path class="st1_teacher-93" d="M151.9,208.4c-3.2-0.1-6.3-1.2-8.9-3.3c-0.3-0.3-0.3-0.7,0-1c0,0,0,0,0,0c0.3-0.3,0.7-0.3,1-0.1&#10;&#9;&#9;c0.3,0.3,8.2,7.2,16.9-1.2c0.3-0.3,0.7-0.3,1,0s0.3,0.7,0,1l0,0C158.3,207.3,154.9,208.4,151.9,208.4z"/>
	<path class="st0_teacher-93" d="M160.5,326.2c0,0,20.7-2.6,26.2-1.3c8.1,1.8,16.7,7.7,21.5,14.3c1.1,1.3,1.8,2.8,2.2,4.5&#10;&#9;&#9;c0.3,1.7-0.5,3.4-1.9,4.3c-1.9,0.9-4-0.2-5.9-0.8c-4.4-1.5-9.2-0.6-13.9,0c-1.8,0.3-3.6,0.4-5.5,0.2c-4.1-0.5-7.8-3-11.6-4.6&#10;&#9;&#9;c-7-3-15.1-2.7-22.4-1.5"/>
	<path class="st1_teacher-93" d="M206.9,349c-1.3-0.1-2.5-0.4-3.6-0.9c-0.3-0.1-0.6-0.2-1-0.3c-3.8-1.3-8.1-0.7-12.2-0.2l-1.4,0.2&#10;&#9;&#9;c-1.9,0.3-3.8,0.4-5.6,0.2c-2.9-0.5-5.8-1.5-8.4-3c-1.1-0.6-2.3-1.1-3.4-1.6c-5.8-2.4-13-2.9-22-1.5c-0.4,0.1-0.8-0.1-0.8-0.5&#10;&#9;&#9;c-0.1-0.4,0.1-0.8,0.5-0.8c0,0,0.1,0,0.1,0c9.3-1.5,16.8-1,22.8,1.6c1.2,0.5,2.4,1.1,3.5,1.7c2.6,1.3,5.1,2.6,7.9,2.9&#10;&#9;&#9;c1.8,0.1,3.5,0.1,5.3-0.2l1.4-0.2c4.3-0.6,8.7-1.2,12.8,0.2l1,0.4c1.6,0.6,3.1,1.1,4.4,0.5c1.2-0.8,1.8-2.2,1.6-3.6&#10;&#9;&#9;c-0.3-1.5-1-3-2-4.2c-5-6.7-13.5-12.3-21.1-14c-5.3-1.2-25.8,1.3-26,1.4c-0.4,0-0.7-0.2-0.8-0.6s0.2-0.7,0.6-0.8&#10;&#9;&#9;c0.9-0.1,20.9-2.6,26.5-1.3c8,1.8,16.8,7.6,21.9,14.6c1.2,1.4,2,3,2.3,4.8c0.4,2-0.6,4-2.3,5C208.2,348.9,207.6,349,206.9,349z"/>
	<path class="st3_teacher-93 targetColor" d="M67.5,276.8c0,0-22.7,67.6-11.6,75.2s100.1,4,100.1,4l5.6-31.9c0,0-61.2,7.9-59.7,3.3s9-56,9-56L67.5,276.8z" style="fill: rgb(104, 225, 253);"/>
	<path class="st1_teacher-93" d="M161.6,324.8L161.6,324.8L96.2,320c-0.4,0-0.7-0.4-0.6-0.7c0,0,0-0.1,0-0.1l14.6-58.4c0.1-0.4,0.5-0.6,0.8-0.5&#10;&#9;&#9;c0.4,0.1,0.6,0.5,0.5,0.9l-14.4,57.5l64.5,4.7c0.4,0,0.7,0.4,0.6,0.8C162.2,324.5,162,324.7,161.6,324.8L161.6,324.8z"/>
	<path class="st1_teacher-93" d="M131.1,356.7c-0.4,0-0.7-0.3-0.7-0.7c0-0.3,0.2-0.6,0.5-0.6c0.2,0,18.5-5.2,26.4-9c0.3-0.2,0.8,0,0.9,0.3&#10;&#9;&#9;c0.2,0.3,0,0.8-0.3,0.9c-8,3.9-25.9,8.8-26.6,9C131.2,356.6,131.1,356.6,131.1,356.7z"/>
</g>
<g id="Desk_teacher-93">
	<path class="st0_teacher-93" d="M41.5,356h362.3c2.7,0,4.9,2.2,4.9,4.9v13c0,2.7-2.2,4.9-4.9,4.9H41.5c-2.7,0-4.9-2.2-4.9-4.9v-13&#10;&#9;&#9;C36.7,358.1,38.8,356,41.5,356z"/>
	<path class="st1_teacher-93" d="M401.9,379.4H43.5c-4.1,0-7.5-3.4-7.5-7.5v-9.1c0-4.1,3.4-7.5,7.5-7.5h358.4c4.1,0,7.5,3.4,7.5,7.5v9.1&#10;&#9;&#9;C409.4,376,406,379.4,401.9,379.4z M43.5,356.7c-3.4,0-6.1,2.7-6.1,6.1v9.1c0,3.4,2.7,6.1,6.1,6.1c0,0,0,0,0,0h358.4&#10;&#9;&#9;c3.4,0,6.1-2.7,6.1-6.1v-9.1c0-3.4-2.7-6.1-6.1-6.1L43.5,356.7z"/>
</g>
<g id="Laptop_teacher-93">
	<path class="st1_teacher-93" d="M181.6,350.4h145c1.1,0,2,0.9,2,2v1.7c0,1.1-0.9,2-2,2h-145c-1.1,0-1.9-0.9-1.9-2v-1.7&#10;&#9;&#9;C179.6,351.3,180.5,350.4,181.6,350.4z"/>
	<path class="st1_teacher-93" d="M325.8,356.7H182.3c-1.9,0-3.5-1.6-3.5-3.5s1.6-3.5,3.5-3.5l0,0h143.4c1.9,0,3.5,1.6,3.5,3.5&#10;&#9;&#9;S327.7,356.7,325.8,356.7z M182.3,351.1c-1.2,0-2.1,0.9-2.1,2.1c0,1.2,0.9,2.1,2.1,2.1h143.4c1.1,0,2-0.9,2-2c0-1.1-0.8-2.1-2-2.1&#10;&#9;&#9;c0,0,0,0,0,0L182.3,351.1z"/>
	<polygon class="st1_teacher-93" points="273.3,280.9 361,280.9 325.9,353.2 238.1,353.2 &#9;"/>
	<path class="st1_teacher-93" d="M325.9,353.9h-87.7c-0.2,0-0.5-0.1-0.6-0.3c-0.1-0.2-0.1-0.5,0-0.7l35.1-72.3c0.1-0.2,0.4-0.4,0.6-0.4H361&#10;&#9;&#9;c0.2,0,0.5,0.1,0.6,0.3c0.1,0.2,0.1,0.5,0,0.7l-35.1,72.3C326.4,353.7,326.1,353.9,325.9,353.9z M239.3,352.5h86.2l34.4-70.9h-86.2&#10;&#9;&#9;L239.3,352.5z"/>
</g>
</svg>